<svg xmlns="http://www.w3.org/2000/svg" xmlns:svg="http://www.w3.org/2000/svg" id="svg3209" width="60" height="60" version="1.1"><title id="title3238">dead</title><metadata id="metadata3214"/><g id="layer1" transform="translate(-620.1475,-462.09155)"><path id="path3004" fill="#fff" fill-opacity="1" d="m 507.85713,598.61218 a 8.9285717,9.4642859 0 1 1 -17.85714,0 8.9285717,9.4642859 0 1 1 17.85714,0 z" transform="matrix(1.12,0,0,1.0188679,108.37794,-123.2272)"/><path id="path3004-1" fill="#fff" fill-opacity="1" d="m 507.85713,598.61218 a 8.9285717,9.4642859 0 1 1 -17.85714,0 8.9285717,9.4642859 0 1 1 17.85714,0 z" transform="matrix(1.12,0,0,1.0188679,90.163666,-123.45806)"/><path id="path3026" fill="#00f" fill-opacity="1" d="m 485.12575,598.23547 a 2.841054,2.9673231 0 1 1 -5.68211,0 2.841054,2.9673231 0 1 1 5.68211,0 z" transform="matrix(1.7599103,0,0,1.6850204,-195.64467,-521.61325)"/><path id="path3026-7" fill="#00f" fill-opacity="1" d="m 485.12575,598.23547 a 2.841054,2.9673231 0 1 1 -5.68211,0 2.841054,2.9673231 0 1 1 5.68211,0 z" transform="matrix(1.7599103,0,0,1.6850204,-176.65359,-521.91655)"/></g></svg>